<?xml version="1.0" encoding="UTF-8" standalone="no"?>
<!--
  - Copyright (c) 2026. Dick Lieber, WA9NNN
  -
  - This program is free software: you can redistribute it and/or modify
  - it under the terms of the GNU General Public License as published by
  - the Free Software Foundation, either version 3 of the License, or
  - (at your option) any later version.
  -
  - This program is distributed in the hope that it will be useful,
  - but WITHOUT ANY WARRANTY; without even the implied warranty of
  - MERCHANTABILITY or FITNESS FOR A PARTICULAR PURPOSE.  See the
  - GNU General Public License for more details.
  -
  - You should have received a copy of the GNU General Public License
  - along with this program.  If not, see <http://www.gnu.org/licenses/>.
  -
  -->

<svg xmlns="http://www.w3.org/2000/svg" width="1536" height="1231" viewBox="0 0 1536 1231">
<style>
  .section { stroke: #ffffff; stroke-width: 2; cursor: pointer; }
  .section:hover { filter: brightness(1.08); opacity: 0.95; }
  .selected { stroke: #000000; stroke-width: 3; }
</style>
<script type="text/ecmascript"><![CDATA[
  let selectedId = null;
  function clearSelection() {
    if (selectedId) {
      const el = document.getElementById(selectedId);
      if (el) el.classList.remove('selected');
    }
    selectedId = null;
  }
  function select(id) {
    clearSelection();
    const el = document.getElementById(id);
    if (el) { el.classList.add('selected'); selectedId = id; }
  }
  function sectionClicked(id) {
    select(id);
    // Placeholder hook: integrate with ScalaFX WebView bridge later.
    // window.app.sectionClicked(id) if you expose it, matching the earlier Scala code.
    if (window.app && typeof window.app.sectionClicked === 'function') {
      window.app.sectionClicked(id);
    }
  }
]]></script>
<path id="region_0001" class="section" fill="#6dc2f2" d="M 1190.0,160.0 L 1188.0,172.0 L 1202.0,172.0 L 1256.0,210.0 L 1276.0,246.0 L 1296.0,252.0 L 1302.0,264.0 L 1350.0,262.0 L 1366.0,278.0 L 1390.0,278.0 L 1408.0,308.0 L 1398.0,336.0 L 1386.0,342.0 L 1396.0,354.0 L 1398.0,336.0 L 1416.0,326.0 L 1416.0,368.0 L 1430.0,364.0 L 1440.0,374.0 L 1474.0,362.0 L 1476.0,378.0 L 1490.0,384.0 L 1490.0,404.0 L 1510.0,402.0 L 1512.0,410.0 L 1494.0,378.0 L 1480.0,376.0 L 1464.0,358.0 L 1466.0,348.0 L 1452.0,358.0 L 1424.0,356.0 L 1428.0,344.0 L 1416.0,312.0 L 1390.0,278.0 L 1362.0,276.0 L 1352.0,260.0 L 1308.0,258.0 L 1296.0,236.0 L 1296.0,246.0 L 1284.0,248.0 L 1258.0,210.0 L 1212.0,180.0 L 1218.0,168.0 L 1198.0,170.0 Z" onclick="sectionClicked('region_0001')" />
<path id="region_0002" class="section" fill="#6dc2f2" d="M 744.0,242.0 L 748.0,284.0 L 766.0,284.0 L 742.0,278.0 L 744.0,254.0 L 812.0,254.0 L 812.0,322.0 L 822.0,326.0 L 818.0,252.0 L 956.0,236.0 L 974.0,272.0 L 1002.0,440.0 L 994.0,450.0 L 1006.0,458.0 L 1022.0,448.0 L 1022.0,422.0 L 1000.0,428.0 L 994.0,362.0 L 1004.0,358.0 L 988.0,358.0 L 988.0,340.0 L 1000.0,336.0 L 984.0,338.0 L 982.0,324.0 L 1002.0,318.0 L 984.0,310.0 L 972.0,234.0 L 1004.0,232.0 L 990.0,206.0 L 992.0,230.0 L 968.0,230.0 L 964.0,214.0 L 958.0,236.0 L 846.0,250.0 L 814.0,246.0 L 812.0,206.0 L 808.0,252.0 L 748.0,254.0 Z" onclick="sectionClicked('region_0002')" />
<path id="region_0003" class="section" fill="#6dc2f2" d="M 178.0,878.0 L 156.0,988.0 L 108.0,986.0 L 150.0,1000.0 L 146.0,1026.0 L 166.0,1000.0 L 380.0,1044.0 L 362.0,1222.0 L 378.0,1108.0 L 410.0,1098.0 L 382.0,1094.0 L 388.0,1052.0 L 514.0,1064.0 L 510.0,1046.0 L 508.0,1058.0 L 396.0,1046.0 L 396.0,1010.0 L 390.0,1036.0 L 368.0,1042.0 L 160.0,998.0 L 174.0,916.0 L 188.0,912.0 L 178.0,900.0 L 200.0,894.0 Z" onclick="sectionClicked('region_0003')" />
<path id="region_0004" class="section" fill="#6dc2f2" d="M 1040.0,1074.0 L 1010.0,1052.0 L 978.0,1066.0 L 958.0,1050.0 L 942.0,1058.0 L 940.0,1050.0 L 916.0,1054.0 L 912.0,1046.0 L 910.0,1054.0 L 874.0,1064.0 L 876.0,1086.0 L 842.0,1090.0 L 868.0,1094.0 L 862.0,1116.0 L 804.0,1114.0 L 806.0,1124.0 L 870.0,1128.0 L 876.0,1222.0 L 870.0,1132.0 L 890.0,1128.0 L 892.0,1118.0 L 906.0,1118.0 L 910.0,1128.0 L 936.0,1126.0 L 912.0,1114.0 L 884.0,1118.0 L 868.0,1110.0 L 872.0,1088.0 L 888.0,1092.0 L 886.0,1066.0 L 948.0,1058.0 L 988.0,1066.0 L 1012.0,1054.0 L 1042.0,1078.0 L 1042.0,1098.0 Z" onclick="sectionClicked('region_0004')" />
<path id="region_0005" class="section" fill="#e7ac88" d="M 90.0,114.0 L 98.0,140.0 L 134.0,134.0 L 156.0,232.0 L 174.0,254.0 L 158.0,308.0 L 162.0,320.0 L 176.0,320.0 L 184.0,362.0 L 172.0,398.0 L 204.0,412.0 L 238.0,474.0 L 388.0,510.0 L 384.0,472.0 L 316.0,374.0 L 354.0,208.0 L 252.0,180.0 Z" onclick="sectionClicked('region_0005')" />
<path id="region_0006" class="section" fill="#e7ac88" d="M 986.0,176.0 L 1010.0,224.0 L 998.0,262.0 L 1040.0,310.0 L 1000.0,366.0 L 1028.0,424.0 L 1016.0,464.0 L 1032.0,558.0 L 1052.0,584.0 L 1096.0,598.0 L 1146.0,588.0 L 1178.0,658.0 L 1190.0,656.0 L 1216.0,518.0 L 1298.0,460.0 L 1270.0,450.0 L 1220.0,492.0 L 1216.0,470.0 L 1246.0,424.0 L 1354.0,386.0 L 1388.0,332.0 L 1270.0,362.0 L 1268.0,382.0 L 1230.0,378.0 L 1192.0,324.0 L 1204.0,304.0 L 1252.0,292.0 L 1200.0,190.0 L 1188.0,186.0 L 1188.0,212.0 L 1154.0,236.0 L 1106.0,178.0 L 1052.0,158.0 Z" onclick="sectionClicked('region_0006')" />
<path id="region_0007" class="section" fill="#e7ac88" d="M 702.0,546.0 L 714.0,620.0 L 708.0,636.0 L 716.0,646.0 L 716.0,692.0 L 816.0,690.0 L 812.0,680.0 L 784.0,660.0 L 784.0,628.0 L 792.0,622.0 L 794.0,602.0 L 820.0,576.0 L 834.0,570.0 L 802.0,568.0 L 780.0,556.0 L 748.0,554.0 L 742.0,536.0 L 738.0,546.0 Z" onclick="sectionClicked('region_0007')" />
<path id="region_0008" class="section" fill="#e7ac88" d="M 238.0,678.0 L 218.0,756.0 L 306.0,884.0 L 306.0,862.0 L 310.0,858.0 L 324.0,858.0 L 352.0,704.0 Z" onclick="sectionClicked('region_0008')" />
<path id="region_0009" class="section" fill="#e7ac88" d="M 562.0,704.0 L 558.0,756.0 L 596.0,760.0 L 598.0,786.0 L 732.0,790.0 L 724.0,774.0 L 718.0,740.0 L 706.0,720.0 L 692.0,714.0 L 678.0,716.0 L 670.0,710.0 Z" onclick="sectionClicked('region_0009')" />
<path id="region_0010" class="section" fill="#e7ac88" d="M 950.0,732.0 L 910.0,736.0 L 898.0,742.0 L 904.0,810.0 L 898.0,840.0 L 936.0,834.0 L 946.0,814.0 L 958.0,810.0 Z" onclick="sectionClicked('region_0010')" />
<path id="region_0011" class="section" fill="#e7ac88" d="M 1106.0,774.0 L 1096.0,768.0 L 1080.0,778.0 L 1070.0,778.0 L 1066.0,772.0 L 1046.0,774.0 L 1044.0,770.0 L 1038.0,784.0 L 1026.0,792.0 L 1026.0,800.0 L 1018.0,804.0 L 1018.0,812.0 L 1012.0,818.0 L 1014.0,826.0 L 1030.0,844.0 L 1046.0,842.0 L 1060.0,834.0 L 1068.0,806.0 L 1080.0,800.0 L 1092.0,778.0 Z" onclick="sectionClicked('region_0011')" />
<path id="region_0012" class="section" fill="#e7ac88" d="M 440.0,858.0 L 418.0,1010.0 L 432.0,1012.0 L 438.0,1000.0 L 556.0,1006.0 L 566.0,872.0 Z" onclick="sectionClicked('region_0012')" />
<path id="region_0013" class="section" fill="#e7ac88" d="M 1034.0,866.0 L 900.0,880.0 L 894.0,886.0 L 868.0,886.0 L 856.0,924.0 L 982.0,914.0 L 982.0,908.0 L 994.0,896.0 L 1028.0,876.0 Z" onclick="sectionClicked('region_0013')" />
<path id="region_0014" class="section" fill="#e7ac88" d="M 644.0,952.0 L 644.0,984.0 L 652.0,988.0 L 648.0,1024.0 L 666.0,1038.0 L 676.0,1038.0 L 690.0,1046.0 L 724.0,1024.0 L 760.0,1030.0 L 762.0,1022.0 L 770.0,1022.0 L 766.0,1016.0 L 764.0,974.0 L 744.0,964.0 L 718.0,968.0 L 690.0,966.0 Z" onclick="sectionClicked('region_0014')" />
<path id="region_0015" class="section" fill="#eae176" d="M 218.0,8.0 L 266.0,158.0 L 306.0,192.0 L 432.0,224.0 L 738.0,252.0 L 852.0,110.0 L 852.0,158.0 L 942.0,146.0 L 854.0,100.0 L 918.0,70.0 L 884.0,14.0 L 934.0,6.0 L 812.0,6.0 L 862.0,18.0 L 846.0,78.0 L 814.0,40.0 L 794.0,58.0 L 758.0,6.0 L 718.0,6.0 L 756.0,46.0 L 732.0,94.0 L 698.0,30.0 L 692.0,74.0 L 558.0,46.0 L 566.0,86.0 L 468.0,48.0 L 470.0,14.0 L 636.0,44.0 L 650.0,24.0 L 618.0,6.0 Z" onclick="sectionClicked('region_0015')" />
<path id="region_0016" class="section" fill="#eae176" d="M 978.0,8.0 L 1026.0,24.0 L 1040.0,40.0 L 1036.0,58.0 L 1020.0,74.0 L 1028.0,88.0 L 1012.0,102.0 L 984.0,100.0 L 976.0,110.0 L 980.0,122.0 L 994.0,122.0 L 1006.0,110.0 L 1020.0,112.0 L 1022.0,104.0 L 1042.0,104.0 L 1056.0,116.0 L 1070.0,116.0 L 1074.0,130.0 L 1156.0,136.0 L 1116.0,116.0 L 1118.0,106.0 L 1160.0,112.0 L 1164.0,106.0 L 1146.0,80.0 L 1104.0,62.0 L 1110.0,52.0 L 1104.0,40.0 L 1144.0,40.0 L 1166.0,52.0 L 1174.0,16.0 L 1152.0,18.0 L 1140.0,16.0 L 1138.0,8.0 L 1102.0,6.0 Z" onclick="sectionClicked('region_0016')" />
<path id="region_0017" class="section" fill="#eae176" d="M 1294.0,486.0 L 1264.0,488.0 L 1254.0,496.0 L 1240.0,496.0 L 1236.0,500.0 L 1236.0,510.0 L 1252.0,518.0 L 1260.0,548.0 L 1270.0,554.0 L 1272.0,562.0 L 1300.0,552.0 L 1314.0,536.0 L 1314.0,530.0 L 1322.0,526.0 L 1296.0,502.0 Z" onclick="sectionClicked('region_0017')" />
<path id="region_0018" class="section" fill="#eae176" d="M 358.0,508.0 L 352.0,532.0 L 358.0,552.0 L 374.0,574.0 L 368.0,602.0 L 382.0,606.0 L 390.0,636.0 L 416.0,638.0 L 426.0,636.0 L 428.0,628.0 L 564.0,644.0 L 570.0,540.0 L 452.0,526.0 Z" onclick="sectionClicked('region_0018')" />
<path id="region_0019" class="section" fill="#eae176" d="M 796.0,608.0 L 796.0,622.0 L 784.0,634.0 L 788.0,638.0 L 788.0,658.0 L 818.0,682.0 L 824.0,712.0 L 832.0,716.0 L 884.0,714.0 L 882.0,690.0 L 888.0,656.0 L 882.0,654.0 L 878.0,628.0 L 868.0,622.0 L 836.0,616.0 L 830.0,610.0 L 818.0,608.0 L 816.0,602.0 Z" onclick="sectionClicked('region_0019')" />
<path id="region_0020" class="section" fill="#eae176" d="M 454.0,750.0 L 440.0,854.0 L 588.0,868.0 L 594.0,762.0 Z" onclick="sectionClicked('region_0020')" />
<path id="region_0021" class="section" fill="#eae176" d="M 732.0,778.0 L 736.0,788.0 L 746.0,794.0 L 744.0,806.0 L 754.0,816.0 L 754.0,886.0 L 852.0,884.0 L 852.0,896.0 L 860.0,896.0 L 862.0,882.0 L 870.0,878.0 L 870.0,872.0 L 862.0,866.0 L 858.0,850.0 L 842.0,840.0 L 844.0,822.0 L 836.0,820.0 L 818.0,798.0 L 810.0,776.0 Z" onclick="sectionClicked('region_0021')" />
<path id="region_0022" class="section" fill="#eae176" d="M 1158.0,838.0 L 1144.0,834.0 L 1144.0,808.0 L 1120.0,798.0 L 1122.0,784.0 L 1096.0,776.0 L 1082.0,804.0 L 1072.0,808.0 L 1060.0,838.0 L 1038.0,848.0 L 1024.0,844.0 L 1006.0,864.0 L 1092.0,854.0 Z" onclick="sectionClicked('region_0022')" />
<path id="region_0023" class="section" fill="#eae176" d="M 632.0,890.0 L 568.0,888.0 L 558.0,1010.0 L 478.0,1004.0 L 512.0,1042.0 L 520.0,1070.0 L 546.0,1088.0 L 562.0,1068.0 L 582.0,1068.0 L 584.0,1056.0 L 622.0,1056.0 L 624.0,1024.0 L 644.0,1026.0 L 648.0,990.0 L 640.0,986.0 L 640.0,950.0 L 630.0,942.0 Z" onclick="sectionClicked('region_0023')" />
<path id="region_0024" class="section" fill="#00e2d1" d="M 102.0,8.0 L 64.0,82.0 L 66.0,90.0 L 84.0,96.0 L 92.0,110.0 L 164.0,142.0 L 296.0,188.0 L 294.0,168.0 L 262.0,162.0 L 262.0,144.0 L 240.0,118.0 L 240.0,80.0 L 232.0,58.0 L 224.0,56.0 L 218.0,44.0 L 218.0,30.0 L 226.0,26.0 L 226.0,20.0 L 214.0,12.0 L 214.0,6.0 Z" onclick="sectionClicked('region_0024')" />
<path id="region_0025" class="section" fill="#00e2d1" d="M 738.0,444.0 L 740.0,530.0 L 748.0,548.0 L 784.0,552.0 L 804.0,564.0 L 842.0,564.0 L 864.0,536.0 L 900.0,540.0 L 912.0,560.0 L 930.0,562.0 L 944.0,596.0 L 990.0,600.0 L 988.0,614.0 L 994.0,602.0 L 1016.0,602.0 L 1048.0,588.0 L 1028.0,560.0 L 1014.0,470.0 L 956.0,420.0 L 948.0,366.0 L 900.0,366.0 L 836.0,334.0 Z" onclick="sectionClicked('region_0025')" />
<path id="region_0026" class="section" fill="#00e2d1" d="M 576.0,540.0 L 570.0,618.0 L 708.0,624.0 L 698.0,546.0 Z" onclick="sectionClicked('region_0026')" />
<path id="region_0027" class="section" fill="#00e2d1" d="M 194.0,546.0 L 174.0,600.0 L 156.0,628.0 L 154.0,648.0 L 214.0,668.0 L 294.0,686.0 L 308.0,634.0 L 306.0,620.0 L 326.0,592.0 L 316.0,582.0 L 292.0,576.0 L 216.0,570.0 L 210.0,564.0 L 208.0,550.0 Z" onclick="sectionClicked('region_0027')" />
<path id="region_0028" class="section" fill="#00e2d1" d="M 1142.0,694.0 L 1098.0,702.0 L 1100.0,714.0 L 1110.0,722.0 L 1110.0,736.0 L 1104.0,746.0 L 1112.0,758.0 L 1120.0,760.0 L 1142.0,754.0 L 1160.0,740.0 L 1150.0,728.0 L 1154.0,706.0 Z" onclick="sectionClicked('region_0028')" />
<path id="region_0029" class="section" fill="#00e2d1" d="M 358.0,706.0 L 332.0,836.0 L 436.0,852.0 L 450.0,748.0 L 412.0,742.0 L 414.0,714.0 Z" onclick="sectionClicked('region_0029')" />
<path id="region_0030" class="section" fill="#00e2d1" d="M 1022.0,840.0 L 1010.0,828.0 L 1004.0,814.0 L 982.0,814.0 L 962.0,806.0 L 962.0,812.0 L 950.0,818.0 L 940.0,836.0 L 898.0,846.0 L 896.0,856.0 L 886.0,866.0 L 874.0,868.0 L 874.0,880.0 L 990.0,868.0 L 1002.0,862.0 Z" onclick="sectionClicked('region_0030')" />
<path id="region_0031" class="section" fill="#00e2d1" d="M 960.0,920.0 L 972.0,974.0 L 980.0,986.0 L 978.0,1006.0 L 986.0,1032.0 L 1000.0,1034.0 L 1004.0,1030.0 L 1048.0,1028.0 L 1052.0,1032.0 L 1054.0,1024.0 L 1064.0,1022.0 L 1070.0,988.0 L 1056.0,966.0 L 1018.0,928.0 L 1010.0,926.0 L 1006.0,916.0 Z" onclick="sectionClicked('region_0031')" />
<path id="region_0032" class="section" fill="#00e2d1" d="M 770.0,988.0 L 770.0,1014.0 L 782.0,1036.0 L 776.0,1074.0 L 792.0,1072.0 L 812.0,1078.0 L 814.0,1072.0 L 826.0,1072.0 L 846.0,1088.0 L 852.0,1084.0 L 864.0,1086.0 L 874.0,1080.0 L 878.0,1068.0 L 872.0,1066.0 L 868.0,1040.0 L 824.0,1040.0 L 824.0,1028.0 L 836.0,1002.0 L 832.0,986.0 Z" onclick="sectionClicked('region_0032')" />
<path id="region_0033" class="section" fill="#c3bded" d="M 6.0,6.0 L 10.0,62.0 L 70.0,106.0 L 98.0,158.0 L 106.0,222.0 L 122.0,230.0 L 120.0,256.0 L 130.0,274.0 L 136.0,262.0 L 152.0,268.0 L 152.0,280.0 L 160.0,280.0 L 172.0,256.0 L 152.0,232.0 L 132.0,138.0 L 96.0,144.0 L 84.0,100.0 L 60.0,90.0 L 100.0,6.0 Z" onclick="sectionClicked('region_0033')" />
<path id="region_0034" class="section" fill="#c3bded" d="M 632.0,254.0 L 624.0,382.0 L 626.0,538.0 L 736.0,542.0 L 734.0,440.0 L 832.0,332.0 L 810.0,324.0 L 780.0,330.0 L 766.0,288.0 L 740.0,282.0 L 738.0,256.0 Z" onclick="sectionClicked('region_0034')" />
<path id="region_0035" class="section" fill="#c3bded" d="M 272.0,488.0 L 272.0,496.0 L 264.0,498.0 L 258.0,518.0 L 250.0,524.0 L 236.0,566.0 L 254.0,572.0 L 294.0,572.0 L 320.0,580.0 L 336.0,502.0 Z" onclick="sectionClicked('region_0035')" />
<path id="region_0036" class="section" fill="#c3bded" d="M 430.0,632.0 L 414.0,738.0 L 554.0,754.0 L 562.0,648.0 Z" onclick="sectionClicked('region_0036')" />
<path id="region_0037" class="section" fill="#c3bded" d="M 1138.0,638.0 L 1134.0,636.0 L 1136.0,648.0 L 1132.0,652.0 L 1116.0,650.0 L 1100.0,666.0 L 1078.0,666.0 L 1062.0,672.0 L 1064.0,690.0 L 1054.0,700.0 L 1054.0,706.0 L 1132.0,690.0 L 1146.0,692.0 L 1154.0,678.0 L 1148.0,674.0 Z" onclick="sectionClicked('region_0037')" />
<path id="region_0038" class="section" fill="#c3bded" d="M 1036.0,714.0 L 1004.0,734.0 L 984.0,730.0 L 954.0,734.0 L 960.0,800.0 L 968.0,800.0 L 974.0,808.0 L 1014.0,812.0 L 1016.0,800.0 L 1038.0,778.0 L 1040.0,734.0 Z" onclick="sectionClicked('region_0038')" />
<path id="region_0039" class="section" fill="#c3bded" d="M 180.0,770.0 L 174.0,784.0 L 178.0,806.0 L 186.0,816.0 L 184.0,830.0 L 190.0,836.0 L 192.0,850.0 L 206.0,872.0 L 238.0,878.0 L 242.0,856.0 L 236.0,854.0 L 232.0,806.0 L 246.0,804.0 L 224.0,770.0 L 222.0,774.0 Z" onclick="sectionClicked('region_0039')" />
<path id="region_0040" class="section" fill="#c3bded" d="M 332.0,840.0 L 328.0,858.0 L 324.0,862.0 L 310.0,862.0 L 310.0,914.0 L 296.0,936.0 L 298.0,952.0 L 290.0,956.0 L 370.0,1004.0 L 414.0,1010.0 L 434.0,858.0 Z" onclick="sectionClicked('region_0040')" />
<path id="region_0041" class="section" fill="#c3bded" d="M 570.0,872.0 L 570.0,882.0 L 626.0,884.0 L 636.0,888.0 L 634.0,940.0 L 638.0,944.0 L 648.0,944.0 L 652.0,950.0 L 690.0,962.0 L 744.0,960.0 L 754.0,966.0 L 750.0,878.0 Z" onclick="sectionClicked('region_0041')" />
<path id="region_0042" class="section" fill="#c3bded" d="M 954.0,922.0 L 902.0,926.0 L 900.0,1018.0 L 904.0,1050.0 L 924.0,1050.0 L 922.0,1030.0 L 978.0,1026.0 L 976.0,988.0 L 968.0,974.0 Z" onclick="sectionClicked('region_0042')" />
<path id="region_0043" class="section" fill="#c3bded" d="M 772.0,1028.0 L 764.0,1026.0 L 762.0,1032.0 L 724.0,1028.0 L 692.0,1048.0 L 684.0,1048.0 L 676.0,1042.0 L 664.0,1042.0 L 654.0,1030.0 L 628.0,1026.0 L 626.0,1060.0 L 586.0,1060.0 L 586.0,1070.0 L 592.0,1070.0 L 610.0,1090.0 L 618.0,1114.0 L 638.0,1136.0 L 646.0,1166.0 L 688.0,1180.0 L 684.0,1164.0 L 688.0,1128.0 L 702.0,1114.0 L 738.0,1098.0 L 748.0,1080.0 L 770.0,1076.0 L 778.0,1046.0 Z" onclick="sectionClicked('region_0043')" />
<path id="region_0044" class="section" fill="#8ef099" d="M 1224.0,198.0 L 1218.0,218.0 L 1230.0,226.0 L 1236.0,260.0 L 1254.0,280.0 L 1254.0,302.0 L 1206.0,306.0 L 1194.0,328.0 L 1214.0,348.0 L 1212.0,362.0 L 1266.0,378.0 L 1268.0,360.0 L 1282.0,364.0 L 1388.0,326.0 L 1402.0,336.0 L 1396.0,448.0 L 1478.0,414.0 L 1472.0,366.0 L 1450.0,380.0 L 1430.0,380.0 L 1428.0,370.0 L 1412.0,366.0 L 1414.0,338.0 L 1400.0,330.0 L 1404.0,312.0 L 1392.0,306.0 L 1390.0,286.0 L 1350.0,276.0 L 1348.0,266.0 L 1300.0,270.0 L 1266.0,252.0 L 1264.0,230.0 Z" onclick="sectionClicked('region_0044')" />
<path id="region_0045" class="section" fill="#8ef099" d="M 360.0,210.0 L 320.0,358.0 L 322.0,374.0 L 334.0,382.0 L 340.0,404.0 L 386.0,468.0 L 386.0,500.0 L 392.0,508.0 L 464.0,522.0 L 504.0,240.0 Z" onclick="sectionClicked('region_0045')" />
<path id="region_0046" class="section" fill="#8ef099" d="M 1244.0,516.0 L 1220.0,520.0 L 1212.0,550.0 L 1214.0,566.0 L 1204.0,584.0 L 1218.0,630.0 L 1224.0,636.0 L 1232.0,616.0 L 1246.0,606.0 L 1246.0,594.0 L 1266.0,588.0 L 1280.0,574.0 L 1276.0,566.0 L 1270.0,566.0 L 1258.0,554.0 Z" onclick="sectionClicked('region_0046')" />
<path id="region_0047" class="section" fill="#8ef099" d="M 834.0,606.0 L 838.0,612.0 L 874.0,620.0 L 886.0,638.0 L 894.0,622.0 L 924.0,610.0 L 936.0,612.0 L 932.0,644.0 L 918.0,648.0 L 912.0,682.0 L 922.0,700.0 L 916.0,730.0 L 978.0,724.0 L 992.0,696.0 L 990.0,680.0 L 982.0,664.0 L 972.0,666.0 L 970.0,676.0 L 960.0,674.0 L 970.0,650.0 L 964.0,630.0 L 938.0,620.0 L 938.0,612.0 L 948.0,610.0 L 946.0,600.0 L 932.0,602.0 L 926.0,596.0 L 902.0,606.0 L 886.0,606.0 L 880.0,598.0 L 866.0,594.0 L 868.0,584.0 Z" onclick="sectionClicked('region_0047')" />
<path id="region_0048" class="section" fill="#8ef099" d="M 168.0,658.0 L 154.0,708.0 L 164.0,712.0 L 170.0,754.0 L 180.0,760.0 L 180.0,766.0 L 220.0,770.0 L 216.0,744.0 L 234.0,676.0 Z" onclick="sectionClicked('region_0048')" />
<path id="region_0049" class="section" fill="#8ef099" d="M 714.0,698.0 L 712.0,716.0 L 726.0,752.0 L 728.0,774.0 L 816.0,774.0 L 824.0,764.0 L 824.0,750.0 L 836.0,744.0 L 840.0,736.0 L 828.0,718.0 L 820.0,714.0 L 816.0,696.0 Z" onclick="sectionClicked('region_0049')" />
<path id="region_0050" class="section" fill="#8ef099" d="M 596.0,790.0 L 592.0,870.0 L 750.0,872.0 L 750.0,818.0 L 742.0,808.0 L 742.0,798.0 L 736.0,794.0 Z" onclick="sectionClicked('region_0050')" />
<path id="region_0051" class="section" fill="#8ef099" d="M 1166.0,866.0 L 1156.0,858.0 L 1158.0,846.0 L 1042.0,864.0 L 1030.0,880.0 L 1024.0,880.0 L 992.0,902.0 L 986.0,912.0 L 1010.0,910.0 L 1030.0,900.0 L 1056.0,898.0 L 1066.0,906.0 L 1090.0,904.0 L 1120.0,924.0 L 1130.0,920.0 L 1132.0,910.0 L 1154.0,892.0 L 1154.0,876.0 L 1162.0,874.0 Z" onclick="sectionClicked('region_0051')" />
<path id="region_0052" class="section" fill="#8ef099" d="M 850.0,888.0 L 756.0,892.0 L 760.0,920.0 L 758.0,966.0 L 768.0,970.0 L 770.0,984.0 L 832.0,980.0 L 832.0,956.0 L 852.0,922.0 L 858.0,902.0 L 850.0,900.0 Z" onclick="sectionClicked('region_0052')" />
<path id="region_0053" class="section" fill="#8ef099" d="M 1086.0,1084.0 L 1086.0,1070.0 L 1064.0,1026.0 L 1054.0,1026.0 L 1052.0,1032.0 L 986.0,1036.0 L 982.0,1030.0 L 924.0,1036.0 L 928.0,1048.0 L 958.0,1046.0 L 980.0,1062.0 L 1002.0,1048.0 L 1012.0,1048.0 L 1034.0,1068.0 L 1042.0,1070.0 L 1048.0,1088.0 Z" onclick="sectionClicked('region_0053')" />
<path id="region_0054" class="section" fill="#eba5a6" d="M 510.0,240.0 L 468.0,524.0 L 622.0,538.0 L 628.0,254.0 Z" onclick="sectionClicked('region_0054')" />
<path id="region_0055" class="section" fill="#eba5a6" d="M 266.0,484.0 L 238.0,478.0 L 236.0,502.0 L 226.0,502.0 L 196.0,486.0 L 196.0,538.0 L 212.0,548.0 L 214.0,564.0 L 232.0,564.0 L 246.0,524.0 L 254.0,518.0 L 260.0,498.0 L 268.0,494.0 Z" onclick="sectionClicked('region_0055')" />
<path id="region_0056" class="section" fill="#eba5a6" d="M 1384.0,478.0 L 1380.0,476.0 L 1372.0,516.0 L 1358.0,524.0 L 1326.0,526.0 L 1320.0,554.0 L 1304.0,580.0 L 1308.0,592.0 L 1318.0,596.0 L 1334.0,572.0 L 1334.0,562.0 L 1346.0,558.0 L 1382.0,524.0 L 1382.0,508.0 L 1392.0,508.0 L 1398.0,502.0 L 1398.0,494.0 L 1384.0,494.0 Z" onclick="sectionClicked('region_0056')" />
<path id="region_0057" class="section" fill="#eba5a6" d="M 340.0,502.0 L 324.0,566.0 L 328.0,598.0 L 308.0,624.0 L 312.0,636.0 L 298.0,688.0 L 414.0,710.0 L 424.0,644.0 L 422.0,640.0 L 388.0,640.0 L 386.0,630.0 L 380.0,626.0 L 376.0,604.0 L 364.0,604.0 L 372.0,576.0 L 352.0,550.0 L 350.0,520.0 L 354.0,506.0 Z" onclick="sectionClicked('region_0057')" />
<path id="region_0058" class="section" fill="#eba5a6" d="M 1046.0,598.0 L 1056.0,616.0 L 1052.0,632.0 L 1060.0,644.0 L 1070.0,648.0 L 1088.0,644.0 L 1094.0,636.0 L 1114.0,628.0 L 1122.0,614.0 L 1138.0,600.0 L 1136.0,592.0 L 1114.0,600.0 L 1094.0,600.0 L 1072.0,588.0 L 1060.0,588.0 Z" onclick="sectionClicked('region_0058')" />
<path id="region_0059" class="section" fill="#eba5a6" d="M 568.0,624.0 L 562.0,700.0 L 670.0,706.0 L 680.0,712.0 L 708.0,716.0 L 712.0,692.0 L 710.0,630.0 Z" onclick="sectionClicked('region_0059')" />
<path id="region_0060" class="section" fill="#eba5a6" d="M 1092.0,702.0 L 1068.0,708.0 L 1052.0,708.0 L 1050.0,704.0 L 1040.0,712.0 L 1048.0,770.0 L 1108.0,760.0 L 1102.0,750.0 L 1108.0,726.0 L 1098.0,718.0 Z" onclick="sectionClicked('region_0060')" />
<path id="region_0061" class="section" fill="#eba5a6" d="M 886.0,718.0 L 836.0,722.0 L 842.0,728.0 L 842.0,740.0 L 826.0,752.0 L 826.0,770.0 L 818.0,782.0 L 822.0,798.0 L 836.0,810.0 L 836.0,816.0 L 848.0,820.0 L 846.0,838.0 L 864.0,852.0 L 868.0,868.0 L 884.0,864.0 L 902.0,820.0 L 894.0,736.0 Z" onclick="sectionClicked('region_0061')" />
<path id="region_0062" class="section" fill="#eba5a6" d="M 232.0,806.0 L 238.0,818.0 L 244.0,868.0 L 238.0,894.0 L 224.0,908.0 L 226.0,912.0 L 242.0,920.0 L 298.0,930.0 L 300.0,920.0 L 310.0,912.0 L 302.0,886.0 L 252.0,812.0 Z" onclick="sectionClicked('region_0062')" />
<path id="region_0063" class="section" fill="#eba5a6" d="M 1014.0,912.0 L 1010.0,920.0 L 1058.0,962.0 L 1070.0,982.0 L 1106.0,946.0 L 1106.0,938.0 L 1114.0,928.0 L 1090.0,908.0 L 1064.0,910.0 L 1058.0,904.0 L 1036.0,904.0 Z" onclick="sectionClicked('region_0063')" />
<path id="region_0064" class="section" fill="#eba5a6" d="M 898.0,926.0 L 852.0,930.0 L 834.0,968.0 L 840.0,1008.0 L 828.0,1036.0 L 868.0,1036.0 L 876.0,1056.0 L 900.0,1050.0 L 896.0,1016.0 Z" onclick="sectionClicked('region_0064')" />
<path id="region_0065" class="section" fill="#6bc4f8" d="M 612.0,58.0 L 644.0,68.0 L 678.0,68.0 L 688.0,56.0 L 682.0,50.0 L 688.0,24.0 L 712.0,22.0 L 712.0,6.0 L 632.0,6.0 L 652.0,18.0 L 660.0,18.0 L 662.0,30.0 L 646.0,52.0 L 612.0,48.0 Z" onclick="sectionClicked('region_0065')" />
<path id="region_0066" class="section" fill="#6bc4f8" d="M 1528.0,18.0 L 1186.0,6.0 L 1088.0,144.0 L 906.0,16.0 L 946.0,148.0 L 854.0,114.0 L 748.0,236.0 L 1008.0,458.0 L 982.0,166.0 L 1168.0,226.0 L 1196.0,164.0 L 1514.0,400.0 L 1394.0,452.0 L 1388.0,342.0 L 1216.0,480.0 L 1406.0,506.0 L 1180.0,726.0 L 1068.0,1012.0 L 1114.0,1178.0 L 942.0,1050.0 L 666.0,1180.0 L 474.0,1008.0 L 236.0,948.0 L 138.0,740.0 L 144.0,280.0 L 6.0,74.0 L 6.0,1222.0 L 1528.0,1222.0 Z" onclick="sectionClicked('region_0066')" />
<path id="region_0067" class="section" fill="#6bc4f8" d="M 938.0,590.0 L 934.0,588.0 L 934.0,576.0 L 926.0,570.0 L 926.0,562.0 L 912.0,564.0 L 898.0,544.0 L 880.0,544.0 L 860.0,556.0 L 856.0,572.0 L 842.0,570.0 L 834.0,578.0 L 822.0,580.0 L 808.0,596.0 L 828.0,594.0 L 830.0,598.0 L 850.0,592.0 L 862.0,580.0 L 872.0,580.0 L 874.0,588.0 L 888.0,600.0 L 922.0,590.0 L 938.0,594.0 Z" onclick="sectionClicked('region_0067')" />
<path id="region_0068" class="section" fill="#5f99e1" d="M 1534.0,6.0 L 1150.0,0.0 L 1530.0,6.0 L 1528.0,1202.0 L 6.0,1224.0 L 0.0,58.0 L 0.0,1222.0 L 1528.0,1228.0 Z" onclick="sectionClicked('region_0068')" />
<path id="region_0069" class="section" fill="#b0a8a2" d="M 174.0,254.0 L 166.0,280.0 L 148.0,288.0 L 154.0,290.0 L 154.0,302.0 L 146.0,318.0 L 162.0,330.0 L 158.0,346.0 L 166.0,356.0 L 170.0,396.0 L 154.0,402.0 L 186.0,460.0 L 168.0,426.0 L 168.0,414.0 L 180.0,412.0 L 210.0,436.0 L 222.0,458.0 L 232.0,460.0 L 234.0,472.0 L 232.0,456.0 L 222.0,452.0 L 226.0,440.0 L 212.0,442.0 L 214.0,416.0 L 202.0,422.0 L 204.0,408.0 L 192.0,410.0 L 170.0,400.0 L 176.0,382.0 L 188.0,384.0 L 180.0,380.0 L 180.0,370.0 L 192.0,372.0 L 194.0,354.0 L 186.0,362.0 L 176.0,360.0 L 172.0,336.0 L 182.0,334.0 L 174.0,328.0 L 178.0,316.0 L 158.0,318.0 L 158.0,292.0 L 176.0,274.0 Z" onclick="sectionClicked('region_0069')" />
<path id="region_0070" class="section" fill="#7bb7e9" d="M 106.0,148.0 L 106.0,158.0 L 96.0,160.0 L 104.0,222.0 L 108.0,234.0 L 114.0,236.0 L 112.0,252.0 L 118.0,270.0 L 150.0,280.0 L 148.0,300.0 L 156.0,288.0 L 150.0,282.0 L 150.0,268.0 L 156.0,266.0 L 144.0,264.0 L 146.0,242.0 L 142.0,240.0 L 142.0,216.0 L 136.0,212.0 L 136.0,202.0 L 142.0,200.0 L 136.0,190.0 L 136.0,178.0 L 126.0,176.0 L 124.0,148.0 L 122.0,166.0 L 112.0,164.0 L 112.0,154.0 Z" onclick="sectionClicked('region_0070')" />
<path id="region_0071" class="section" fill="#d4aa95" d="M 164.0,286.0 L 156.0,292.0 L 158.0,306.0 L 148.0,320.0 L 164.0,328.0 L 162.0,344.0 L 178.0,356.0 L 170.0,398.0 L 158.0,406.0 L 160.0,416.0 L 170.0,424.0 L 164.0,410.0 L 182.0,402.0 L 200.0,436.0 L 202.0,430.0 L 212.0,432.0 L 212.0,440.0 L 202.0,442.0 L 204.0,456.0 L 188.0,460.0 L 182.0,438.0 L 172.0,428.0 L 194.0,468.0 L 200.0,460.0 L 230.0,458.0 L 236.0,474.0 L 244.0,476.0 L 236.0,474.0 L 238.0,464.0 L 224.0,450.0 L 226.0,438.0 L 214.0,426.0 L 214.0,414.0 L 178.0,400.0 L 180.0,388.0 L 192.0,384.0 L 190.0,360.0 L 178.0,358.0 L 178.0,346.0 L 172.0,344.0 L 172.0,334.0 L 182.0,332.0 L 178.0,314.0 L 160.0,316.0 L 160.0,306.0 L 166.0,304.0 Z" onclick="sectionClicked('region_0071')" />
<path id="region_0072" class="section" fill="#315bb3" d="M 1138.0,1212.0 L 1520.0,1212.0 L 1516.0,1196.0 L 1506.0,1198.0 L 1504.0,1212.0 L 1470.0,1212.0 L 1468.0,1204.0 L 1458.0,1212.0 L 1430.0,1212.0 L 1426.0,1192.0 L 1416.0,1212.0 L 1396.0,1212.0 L 1386.0,1192.0 L 1378.0,1212.0 L 1358.0,1212.0 L 1358.0,1192.0 L 1328.0,1194.0 L 1326.0,1212.0 L 1288.0,1206.0 L 1256.0,1212.0 L 1256.0,1196.0 L 1272.0,1200.0 L 1262.0,1188.0 L 1236.0,1198.0 L 1238.0,1212.0 L 1208.0,1212.0 L 1206.0,1188.0 L 1172.0,1188.0 L 1170.0,1212.0 L 1158.0,1212.0 L 1146.0,1192.0 Z" onclick="sectionClicked('region_0072')" />
</svg>